<?xml version="1.0" encoding="utf-8"?>
<!-- Uploaded to: SVG Repo, www.svgrepo.com, Generator: SVG Repo Mixer Tools -->
<svg width="800px" height="800px" viewBox="-2.17 0 80.129 80.129" xmlns="http://www.w3.org/2000/svg">
  <g id="eraser" transform="translate(-1067.853 -238.567)">
    <path id="Path_267" data-name="Path 267" d="M1141.749,272.477a6.554,6.554,0,0,0,0-9.229l-22.779-22.779a6.544,6.544,0,0,0-9.225,0l-19.995,19.994,32.007,32.012Z" fill="#f4f4f4"/>
    <path id="Path_268" data-name="Path 268" d="M1089.75,260.463l-19.992,19.99a6.543,6.543,0,0,0,0,9.23l22.779,22.774a6.538,6.538,0,0,0,9.228,0l19.992-19.982Z" fill="#ff5245"/>
    <path id="Path_269" data-name="Path 269" d="M1101.759,312.464l1.1-1.1-32-32.009-1.106,1.1a6.543,6.543,0,0,0,.005,9.225l22.779,22.774A6.538,6.538,0,0,0,1101.759,312.464Z" fill="#f43b37"/>
    <path id="Path_270" data-name="Path 270" d="M1109.6,314.051a1.857,1.857,0,1,1-1.86-1.863A1.852,1.852,0,0,1,1109.6,314.051Z" fill="#f4f4f4"/>
    <path id="Path_271" data-name="Path 271" d="M1123,314.051a3.185,3.185,0,1,1-3.184-3.183A3.18,3.18,0,0,1,1123,314.051Z" fill="#f4f4f4"/>
    <path id="Path_272" data-name="Path 272" d="M1139.6,314.051a4.646,4.646,0,1,1-4.646-4.645A4.643,4.643,0,0,1,1139.6,314.051Z" fill="#f4f4f4"/>
  </g>
</svg>